<svg xmlns="http://www.w3.org/2000/svg" xmlns:xlink="http://www.w3.org/1999/xlink" xmlns:lucid="lucid" width="1511.5" height="1906.55"><g transform="translate(620 801.9210526323933)" lucid:page-tab-id="0_0"><path d="M-1806.87-1258.83h3677.74v2581.66h-3677.74z" fill="#fff"/><path d="M474.86-781.92c15.86 0 28.72 17.53 28.72 39.16 0 21.62-12.86 39.15-28.72 39.15H388.7c-15.86 0-28.7-17.54-28.7-39.16 0-21.63 12.84-39.16 28.7-39.16z" stroke="#5e5e5e" stroke-width="3" fill="#fff"/><use xlink:href="#a" transform="matrix(1,0,0,1,364.98717948717945,-776.9210526323933) translate(33.111111111111114 39.34027777777778)"/><path d="M593.32-270.37v148.45" stroke="#5e5e5e" stroke-width="2" fill="none"/><path d="M594.32-270.34h-2v-1.03h2z" stroke="#5e5e5e" stroke-width=".05" fill="#5e5e5e"/><path d="M593.32-106.66l-4.63-14.26h9.26z" stroke="#5e5e5e" stroke-width="2" fill="#5e5e5e"/><path d="M593.32-93.5v-49.92 21.5M593.32-93.53v1.02" stroke="#5e5e5e" stroke-width="2" fill="none"/><path d="M593.32-106.66l-4.63-14.26h9.26z" stroke="#5e5e5e" stroke-width="2" fill="#5e5e5e"/><path d="M521.53-95.92c0-3.3 2.68-6 6-6h131.6c3.3 0 6 2.7 6 6V9.55c0 3.32-2.7 6-6 6h-131.6c-3.32 0-6-2.68-6-6z" stroke="#5e5e5e" stroke-width="3" fill="#fff"/><use xlink:href="#b" transform="matrix(1,0,0,1,533.525641025641,-89.9210526323933) translate(6.388888888888893 38.34027777777778)"/><use xlink:href="#c" transform="matrix(1,0,0,1,533.525641025641,-89.9210526323933) translate(21.388888888888893 65.00694444444446)"/><use xlink:href="#d" transform="matrix(1,0,0,1,533.525641025641,-89.9210526323933) translate(86.26543209876542 65.00694444444446)"/><path d="M593.32 18.05V154.8" stroke="#5e5e5e" stroke-width="2" fill="none"/><path d="M594.32 18.08h-2v-1.03h2z" stroke="#5e5e5e" stroke-width=".05" fill="#5e5e5e"/><path d="M593.32 170.06l-4.63-14.27h9.26z" stroke="#5e5e5e" stroke-width="2" fill="#5e5e5e"/><path d="M521.53 180.8c0-3.32 2.68-6 6-6h131.6c3.3 0 6 2.68 6 6v108c0 3.3-2.7 6-6 6h-131.6c-3.32 0-6-2.7-6-6z" stroke="#5e5e5e" stroke-width="3" fill="#fff"/><use xlink:href="#e" transform="matrix(1,0,0,1,533.525641025641,186.7967260240308) translate(0.864197530864196 38.77777777777778)"/><use xlink:href="#c" transform="matrix(1,0,0,1,533.525641025641,186.7967260240308) translate(21.388888888888893 65.44444444444446)"/><use xlink:href="#d" transform="matrix(1,0,0,1,533.525641025641,186.7967260240308) translate(86.26543209876542 65.44444444444446)"/><path d="M593.32 297.3v55.93" stroke="#5e5e5e" stroke-width="2" fill="none"/><path d="M594.32 297.32h-2v-1.02h2z" stroke="#5e5e5e" stroke-width=".05" fill="#5e5e5e"/><path d="M593.32 368.5l-4.63-14.27h9.26z" stroke="#5e5e5e" stroke-width="2" fill="#5e5e5e"/><path d="M521.53 379.24c0-3.32 2.68-6 6-6h131.6c3.3 0 6 2.68 6 6V484.7c0 3.32-2.7 6-6 6h-131.6c-3.32 0-6-2.68-6-6z" stroke="#5e5e5e" stroke-width="3" fill="#fff"/><use xlink:href="#b" transform="matrix(1,0,0,1,533.525641025641,385.2368420563988) translate(6.388888888888893 38.34027777777778)"/><use xlink:href="#c" transform="matrix(1,0,0,1,533.525641025641,385.2368420563988) translate(21.388888888888893 65.00694444444446)"/><use xlink:href="#f" transform="matrix(1,0,0,1,533.525641025641,385.2368420563988) translate(86.26543209876542 65.00694444444446)"/><path d="M521.53 548.96c0-3.3 2.68-6 6-6h131.6c3.3 0 6 2.7 6 6v108c0 3.32-2.7 6-6 6h-131.6c-3.32 0-6-2.68-6-6z" stroke="#5e5e5e" stroke-width="3" fill="#fff"/><use xlink:href="#e" transform="matrix(1,0,0,1,533.525641025641,554.963157836317) translate(0.864197530864196 38.77777777777778)"/><use xlink:href="#c" transform="matrix(1,0,0,1,533.525641025641,554.963157836317) translate(21.388888888888893 65.44444444444446)"/><use xlink:href="#f" transform="matrix(1,0,0,1,533.525641025641,554.963157836317) translate(86.26543209876542 65.44444444444446)"/><path d="M593.32 493.2v29.76" stroke="#5e5e5e" stroke-width="2" fill="none"/><path d="M594.32 493.24h-2v-1.03h2z" stroke="#5e5e5e" stroke-width=".05" fill="#5e5e5e"/><path d="M593.32 538.23l-4.63-14.27h9.26z" stroke="#5e5e5e" stroke-width="2" fill="#5e5e5e"/><path d="M593.32 665.46v40.2" stroke="#5e5e5e" stroke-width="2" fill="none"/><path d="M594.32 665.5h-2v-1.04h2z" stroke="#5e5e5e" stroke-width=".05" fill="#5e5e5e"/><path d="M593.32 720.92l-4.63-14.26h9.26z" stroke="#5e5e5e" stroke-width="2" fill="#5e5e5e"/><path d="M521.53 731.66c0-3.32 2.68-6 6-6h131.6c3.3 0 6 2.68 6 6v105.47c0 3.32-2.7 6-6 6h-131.6c-3.32 0-6-2.68-6-6z" stroke="#5e5e5e" stroke-width="3" fill="#fff"/><use xlink:href="#b" transform="matrix(1,0,0,1,533.525641025641,737.6578946733185) translate(6.388888888888893 38.34027777777778)"/><use xlink:href="#c" transform="matrix(1,0,0,1,533.525641025641,737.6578946733185) translate(21.388888888888893 65.00694444444446)"/><use xlink:href="#g" transform="matrix(1,0,0,1,533.525641025641,737.6578946733185) translate(86.26543209876542 65.00694444444446)"/><path d="M521.53 920.96c0-3.3 2.68-6 6-6h131.6c3.3 0 6 2.7 6 6v108c0 3.32-2.7 6-6 6h-131.6c-3.32 0-6-2.68-6-6z" stroke="#5e5e5e" stroke-width="3" fill="#fff"/><use xlink:href="#h" transform="matrix(1,0,0,1,533.525641025641,926.9631578982115) translate(0.864197530864196 38.77777777777778)"/><use xlink:href="#c" transform="matrix(1,0,0,1,533.525641025641,926.9631578982115) translate(21.388888888888893 65.44444444444446)"/><use xlink:href="#g" transform="matrix(1,0,0,1,533.525641025641,926.9631578982115) translate(86.26543209876542 65.44444444444446)"/><path d="M593.32 845.63v49.33" stroke="#5e5e5e" stroke-width="2" fill="none"/><path d="M594.32 845.66h-2v-1.03h2z" stroke="#5e5e5e" stroke-width=".05" fill="#5e5e5e"/><path d="M593.32 910.23l-4.63-14.27h9.26z" stroke="#5e5e5e" stroke-width="2" fill="#5e5e5e"/><path d="M519.03 974.96h-13.4" stroke="#5e5e5e" stroke-width="2" fill="none"/><path d="M520.03 975.96H519v-2h1.03z" stroke="#5e5e5e" stroke-width=".05" fill="#5e5e5e"/><path d="M490.37 974.96l14.26-4.63v9.27z" stroke="#5e5e5e" stroke-width="2" fill="#5e5e5e"/><path d="M342.04 902.3c0-3.32 2.68-6 6-6h131.6c3.3 0 6 2.68 6 6v145.33c0 3.3-2.7 6-6 6h-131.6c-3.32 0-6-2.7-6-6z" stroke="#5e5e5e" stroke-width="3" fill="#fff"/><use xlink:href="#i" transform="matrix(1,0,0,1,354.03846153846143,908.2964912315449) translate(19.320987654320994 17.77777777777778)"/><use xlink:href="#j" transform="matrix(1,0,0,1,354.03846153846143,908.2964912315449) translate(4.104938271604951 44.44444444444444)"/><use xlink:href="#k" transform="matrix(1,0,0,1,354.03846153846143,908.2964912315449) translate(86.26543209876543 44.44444444444444)"/><use xlink:href="#l" transform="matrix(1,0,0,1,354.03846153846143,908.2964912315449) translate(12.12962962962964 71.11111111111111)"/><use xlink:href="#m" transform="matrix(1,0,0,1,354.03846153846143,908.2964912315449) translate(93.05555555555554 71.11111111111111)"/><use xlink:href="#n" transform="matrix(1,0,0,1,354.03846153846143,908.2964912315449) translate(19.351851851851855 97.77777777777777)"/><use xlink:href="#o" transform="matrix(1,0,0,1,354.03846153846143,908.2964912315449) translate(26.69753086419753 124.44444444444446)"/><use xlink:href="#g" transform="matrix(1,0,0,1,354.03846153846143,908.2964912315449) translate(80.95679012345678 124.44444444444446)"/><path d="M339.54 974.96h-123.8c-3.3 0-6-2.68-6-6v-94.7" stroke="#5e5e5e" stroke-width="2" fill="none"/><path d="M340.54 975.96h-1.03v-2h1.04z" stroke="#5e5e5e" stroke-width=".05" fill="#5e5e5e"/><path d="M209.74 859l4.64 14.26h-9.27z" stroke="#5e5e5e" stroke-width="2" fill="#5e5e5e"/><path d="M205.22 703.95c2.5-2.18 6.55-2.18 9.04 0l80.7 70.42c2.5 2.18 2.5 5.7 0 7.9l-80.7 70.42c-2.5 2.17-6.54 2.17-9.04 0l-80.7-70.44c-2.5-2.18-2.5-5.7 0-7.9z" stroke="#5e5e5e" stroke-width="3" fill="#fff"/><use xlink:href="#p" transform="matrix(1,0,0,1,125,705) translate(66.01734567901235 45.34027777777778)"/><use xlink:href="#q" transform="matrix(1,0,0,1,125,705) translate(28.424753086419752 72.00694444444446)"/><use xlink:href="#r" transform="matrix(1,0,0,1,125,705) translate(107.31364197530864 72.00694444444446)"/><use xlink:href="#s" transform="matrix(1,0,0,1,125,705) translate(42.227222222222224 98.67361111111111)"/><use xlink:href="#t" transform="matrix(1,0,0,1,125,705) translate(114.20253086419754 98.67361111111111)"/><use xlink:href="#u" transform="matrix(1,0,0,1,125,705) translate(78.83216049382716 125.3402777777778)"/><path d="M521.53-384.34c0-3.32 2.68-6 6-6h131.6c3.3 0 6 2.68 6 6v105.47c0 3.32-2.7 6-6 6h-131.6c-3.32 0-6-2.68-6-6z" stroke="#5e5e5e" stroke-width="3" fill="#fff"/><use xlink:href="#b" transform="matrix(1,0,0,1,533.525641025641,-378.3421052802603) translate(6.388888888888893 38.34027777777778)"/><use xlink:href="#v" transform="matrix(1,0,0,1,533.525641025641,-378.3421052802603) translate(44.598765432098766 65.00694444444446)"/><path d="M148.5-101.92c17.67 0 32 17.9 32 40s-14.33 40-32 40h-96c-17.67 0-32-17.9-32-40s14.33-40 32-40z" stroke="#5e5e5e" stroke-width="3" fill="#fff"/><use xlink:href="#w" transform="matrix(1,0,0,1,25.5,-96.9210526323933) translate(55.925925925925924 39.65277777777778)"/><path d="M324.1 326c0-3.3 2.68-6 6-6h131.58c3.3 0 6 2.7 6 6v105.47c0 3.32-2.7 6-6 6h-131.6c-3.3 0-6-2.68-6-6z" stroke="#5e5e5e" stroke-width="3" fill="#fff"/><use xlink:href="#x" transform="matrix(1,0,0,1,336.0897435897436,332) translate(6.975308641975317 38.111111111111114)"/><use xlink:href="#y" transform="matrix(1,0,0,1,336.0897435897436,332) translate(76.04938271604938 38.111111111111114)"/><use xlink:href="#z" transform="matrix(1,0,0,1,336.0897435897436,332) translate(-2.0679012345678984 64.77777777777777)"/><path d="M-600 346c0-3.3 2.7-6 6-6h148c3.3 0 6 2.7 6 6v108c0 3.3-2.7 6-6 6h-148c-3.3 0-6-2.7-6-6z" stroke="#5e5e5e" stroke-width="3" fill="#fff"/><use xlink:href="#x" transform="matrix(1,0,0,1,-588,352) translate(14.975308641975317 39.111111111111114)"/><use xlink:href="#y" transform="matrix(1,0,0,1,-588,352) translate(84.04938271604938 39.111111111111114)"/><use xlink:href="#A" transform="matrix(1,0,0,1,-588,352) translate(-2.0617283950617207 65.77777777777777)"/><path d="M140.5 138.08c0 22.1-17.9 40-40 40s-40-17.9-40-40 17.9-40 40-40 40 17.9 40 40z" stroke="#5e5e5e" stroke-width="3" fill="#fff"/><use xlink:href="#B" transform="matrix(1,0,0,1,65.5,103.0789473676067) translate(27.592592592592595 39.65277777777778)"/><path d="M395.88 317.5V144.08c0-3.3-2.68-6-6-6H160.5" stroke="#5e5e5e" stroke-width="2" fill="none"/><path d="M396.88 318.5h-2v-1.03h2z" stroke="#5e5e5e" stroke-width=".05" fill="#5e5e5e"/><path d="M145.24 138.08l14.26-4.64v9.27z" stroke="#5e5e5e" stroke-width="2" fill="#5e5e5e"/><path d="M-520 337.5V144.08c0-3.3 2.7-6 6-6H40.5" stroke="#5e5e5e" stroke-width="2" fill="none"/><path d="M-519 338.5h-2v-1.03h2z" stroke="#5e5e5e" stroke-width=".05" fill="#5e5e5e"/><path d="M55.76 138.08L41.5 142.7v-9.26z" stroke="#5e5e5e" stroke-width="2" fill="#5e5e5e"/><path d="M100.5 95.58v-97.5" stroke="#5e5e5e" stroke-width="2" fill="none"/><path d="M101.5 96.64l-.98-.06-1.02.03v-1.05h2z" stroke="#5e5e5e" stroke-width=".05" fill="#5e5e5e"/><path d="M100.5-17.18l4.64 14.26h-9.28z" stroke="#5e5e5e" stroke-width="2" fill="#5e5e5e"/><path d="M467.68-625.3c0 21.64-16.07 39.17-35.9 39.17-19.82 0-35.9-17.53-35.9-39.16 0-21.62 16.08-39.15 35.9-39.15 19.83 0 35.9 17.53 35.9 39.16z" stroke="#5e5e5e" stroke-width="3" fill="#fff"/><use xlink:href="#B" transform="matrix(1,0,0,1,400.88461538461536,-659.4473684267534) translate(23.592592592592595 39.34027777777778)"/><path d="M431.78-701.1v16.65" stroke="#5e5e5e" stroke-width="2" fill="none"/><path d="M432.78-701.08h-2v-1.03h2z" stroke="#5e5e5e" stroke-width=".05" fill="#5e5e5e"/><path d="M431.78-669.18l-4.63-14.27h9.27z" stroke="#5e5e5e" stroke-width="2" fill="#5e5e5e"/><path d="M878.05-625.37l2.53 2.53.92 3.42v1707.18l-.92 3.42-2.53 2.53-3.42.93H306.4l-3.4-.92-2.54-2.52-.92-3.42V980.83l.92-3.4 2.53-2.54 3.4-.94h33.14v2h-32.87l-2.64.72-1.78 1.77-.7 2.65v106.4l.7 2.64 1.78 1.77 2.64.73h567.7l2.64-.72 1.8-1.76.7-2.64V-619.16l-.7-2.64-1.8-1.77-2.63-.72h-386.7v-2h386.96z" stroke="#5e5e5e" stroke-width=".05" fill="#5e5e5e"/><path d="M340.54 975.96h-1.03v-2h1.04z" fill="#5e5e5e"/><path d="M340.56 976h-1.07v-2.06h1.06zm-1.02-2v1.94h.97V974z" stroke="#5e5e5e" stroke-width=".05" fill="#5e5e5e"/><path d="M486.68-620.65l-14.26-4.64 14.26-4.62z" fill="#5e5e5e"/><path d="M487.68-619.28l-18.5-6 18.5-6.02zm-12.03-6l10.03 3.25v-6.52z" stroke="#5e5e5e" stroke-width=".05" fill="#5e5e5e"/><path d="M427.14-513.8c2.56-2.1 6.72-2.1 9.3 0l62.5 51.13c2.56 2.1 2.56 5.5 0 7.6l-62.5 51.14c-2.58 2.1-6.74 2.1-9.3 0l-62.5-51.14c-2.57-2.1-2.57-5.5 0-7.6z" stroke="#5e5e5e" stroke-width="3" fill="#fff"/><use xlink:href="#C" transform="matrix(1,0,0,1,364.98717948717945,-512.6052631697034) translate(11.62845679012346 58.27777777777778)"/><use xlink:href="#D" transform="matrix(1,0,0,1,364.98717948717945,-512.6052631697034) translate(54.7766049382716 58.27777777777778)"/><path d="M594.32-410.34h-2v-37.86h2zm-90.98-47.53v-2h61.7v2z" stroke="#5e5e5e" stroke-width=".05" fill="#5e5e5e"/><path d="M503.36-457.87h-1.18l.22-.7-.26-1.3h1.22z" fill="#5e5e5e"/><path d="M503.4-457.84h-1.25l.22-.74-.26-1.3h1.3zm-1.23-2l.25 1.27-.2.68h1.12v-1.94z" stroke="#5e5e5e" stroke-width=".05" fill="#5e5e5e"/><path d="M593.32-395.08l-4.63-14.26h9.26z" fill="#5e5e5e"/><path d="M593.32-391.84l-6-18.5h12zm-3.26-16.5l3.26 10.03 3.26-10.04z" stroke="#5e5e5e" stroke-width=".05" fill="#5e5e5e"/><use xlink:href="#E" transform="matrix(1,0,0,1,565.0457696638903,-469.5350877335502) translate(0 14.222222222222223)"/><path d="M431.78-583.63v48.3" stroke="#5e5e5e" stroke-width="2" fill="none"/><path d="M431.75-584.63l1.03-.02v1.04h-2v-1.1z" stroke="#5e5e5e" stroke-width=".05" fill="#5e5e5e"/><path d="M431.78-520.05l-4.63-14.27h9.27z" stroke="#5e5e5e" stroke-width="2" fill="#5e5e5e"/><path d="M101.5-121.92h-2v-278.92h2zm258.73-335.95h-253.6l-2.64.72-1.8 1.77-.7 2.64v30.57h-2V-453l.92-3.42 2.53-2.52 3.42-.93h253.86z" stroke="#5e5e5e" stroke-width=".05" fill="#5e5e5e"/><path d="M361.17-459.16l.26 1.3h-1.23v-2h1.18z" fill="#5e5e5e"/><path d="M361.2-459.16l.26 1.32h-1.28v-2.05h1.24zm-.97-.68v1.95h1.17l-.26-1.26.2-.68z" stroke="#5e5e5e" stroke-width=".05" fill="#5e5e5e"/><path d="M100.5-106.66l-4.64-14.26h9.28z" fill="#5e5e5e"/><path d="M100.5-103.42l-6-18.5h12zm-3.26-16.5l3.26 10.03 3.26-10.02z" stroke="#5e5e5e" stroke-width=".05" fill="#5e5e5e"/><use xlink:href="#F" transform="matrix(1,0,0,1,80.79629629629629,-422.1748027676786) translate(0 14.222222222222223)"/><path d="M405 772.45l-.92 3.4-2.53 2.54-3.42.92h-98.77v-2h98.5l2.65-.72 1.8-1.77.7-2.65V672.13h2zm0-121.65h-2V457.48h2z" stroke="#5e5e5e" stroke-width=".05" fill="#5e5e5e"/><path d="M299.4 779.32h-1.24l.22-.93-.23-1.08h1.24z" fill="#5e5e5e"/><path d="M299.4 779.34h-1.28l.23-.95-.23-1.1h1.3zm-1.22-2l.22 1.05-.2.9h1.16v-1.96z" stroke="#5e5e5e" stroke-width=".05" fill="#5e5e5e"/><path d="M408.64 456.48h-9.27L404 442.2z" fill="#5e5e5e"/><path d="M410 457.48h-12l6-18.5zm-9.26-2h6.52L404 445.45z" stroke="#5e5e5e" stroke-width=".05" fill="#5e5e5e"/><g><use xlink:href="#G" transform="matrix(1,0,0,1,388.22294801520513,650.7985828958931) translate(0 14.222222222222223)"/></g><path d="M20.37 779.32h-42.85v-2h42.85zm99.76 0H59.78v-2h60.35z" stroke="#5e5e5e" stroke-width=".05" fill="#5e5e5e"/><path d="M121.1 778.24l.24 1.08h-1.24v-2h1.23z" fill="#5e5e5e"/><path d="M121.14 778.24l.23 1.1h-1.3v-2.05h1.3zm-1-.9v1.95h1.17l-.2-1.06.2-.9z" stroke="#5e5e5e" stroke-width=".05" fill="#5e5e5e"/><path d="M-23.48 782.95l-14.26-4.63 14.26-4.64z" fill="#5e5e5e"/><path d="M-22.48 784.33l-18.5-6 18.5-6.03zm-12.03-6l10.02 3.24v-6.5z" stroke="#5e5e5e" stroke-width=".05" fill="#5e5e5e"/><g><use xlink:href="#F" transform="matrix(1,0,0,1,20.370166026747288,767.649122817427) translate(0 14.222222222222223)"/></g><path d="M-154.64 703.47c2.7-1.9 7.08-1.9 9.78 0l100.47 71.37c2.7 1.92 2.7 5.03 0 6.95l-100.46 71.36c-2.7 1.92-7.08 1.92-9.78 0L-255.1 781.8c-2.7-1.93-2.7-5.04 0-6.96z" stroke="#5e5e5e" stroke-width="3" fill="#fff"/><g><use xlink:href="#p" transform="matrix(1,0,0,1,-255,705) translate(86.51734567901235 36.15277777777778)"/><use xlink:href="#q" transform="matrix(1,0,0,1,-255,705) translate(42.01734567901236 62.81944444444445)"/><use xlink:href="#H" transform="matrix(1,0,0,1,-255,705) translate(120.90623456790124 62.81944444444445)"/><use xlink:href="#I" transform="matrix(1,0,0,1,-255,705) translate(54.48030864197531 89.48611111111111)"/><use xlink:href="#J" transform="matrix(1,0,0,1,-255,705) translate(72.99882716049383 89.48611111111111)"/><use xlink:href="#K" transform="matrix(1,0,0,1,-255,705) translate(72.20253086419754 116.1527777777778)"/><use xlink:href="#L" transform="matrix(1,0,0,1,-255,705) translate(126.4617901234568 116.1527777777778)"/></g><path d="M-148.75 699.6h-2v-87.9h2zm0-109.22h-2V520h2z" stroke="#5e5e5e" stroke-width=".05" fill="#5e5e5e"/><path d="M-148.75 700.6l-2-.02v-1h2z" fill="#5e5e5e"/><path d="M-148.72 700.63l-2.06-.02v-1.06h2.06zm-2-1.04v.96l1.94.02v-1z" stroke="#5e5e5e" stroke-width=".05" fill="#5e5e5e"/><path d="M-145.1 519h-9.3l4.65-14.26z" fill="#5e5e5e"/><path d="M-143.74 520h-12.02l6-18.5zm-9.27-2h6.5l-3.25-10.03z" stroke="#5e5e5e" stroke-width=".05" fill="#5e5e5e"/><g><use xlink:href="#E" transform="matrix(1,0,0,1,-166.0462962962963,590.3807099725533) translate(0 14.222222222222223)"/></g><path d="M-229.75 386c0-3.3 2.7-6 6-6h148c3.3 0 6 2.7 6 6v108c0 3.3-2.7 6-6 6h-148c-3.3 0-6-2.7-6-6z" stroke="#5e5e5e" stroke-width="3" fill="#fff"/><g><use xlink:href="#x" transform="matrix(1,0,0,1,-217.75,392) translate(5.932098765432109 25.77777777777778)"/><use xlink:href="#M" transform="matrix(1,0,0,1,-217.75,392) translate(75.00617283950618 25.77777777777778)"/><use xlink:href="#N" transform="matrix(1,0,0,1,-217.75,392) translate(52.598765432098766 52.44444444444445)"/><use xlink:href="#O" transform="matrix(1,0,0,1,-217.75,392) translate(-17.648148148148138 79.11111111111111)"/></g><path d="M-519 772.18l.7 2.65 1.8 1.77 2.63.72h254.35v2h-254.6l-3.43-.93-2.53-2.54-.92-3.4V761.3h2zm0-32.2h-2V480h2z" stroke="#5e5e5e" stroke-width=".05" fill="#5e5e5e"/><path d="M-258.64 777.5l.27 1.82h-1.18v-2h1z" fill="#5e5e5e"/><path d="M-258.62 777.5l.28 1.84h-1.23v-2.05h1.06zm-.9-.16v1.95h1.12l-.27-1.8.08-.16z" stroke="#5e5e5e" stroke-width=".05" fill="#5e5e5e"/><path d="M-515.36 479h-9.28l4.64-14.26z" fill="#5e5e5e"/><path d="M-514 480h-12l6-18.5zm-9.26-2h6.52l-3.26-10.03z" stroke="#5e5e5e" stroke-width=".05" fill="#5e5e5e"/><g><use xlink:href="#F" transform="matrix(1,0,0,1,-539.7037037037037,739.981097701887) translate(0 14.222222222222223)"/></g><path d="M-149.75 377.5V168.04c0-3.3 2.7-6 6-6H48.2" stroke="#5e5e5e" stroke-width="2" fill="none"/><path d="M-148.75 378.5h-2v-1.03h2z" stroke="#5e5e5e" stroke-width=".05" fill="#5e5e5e"/><path d="M63.47 162.04l-14.27 4.64v-9.27z" stroke="#5e5e5e" stroke-width="2" fill="#5e5e5e"/><defs><path fill="#333" d="M33 0v-248h34V0H33" id="P"/><path fill="#333" d="M190 0L58-211 59 0H30v-248h39L202-35l-2-213h31V0h-41" id="Q"/><path fill="#333" d="M212-179c-10-28-35-45-73-45-59 0-87 40-87 99 0 60 29 101 89 101 43 0 62-24 78-52l27 14C228-24 195 4 139 4 59 4 22-46 18-125c-6-104 99-153 187-111 19 9 31 26 39 46" id="R"/><path fill="#333" d="M140-251c81 0 123 46 123 126C263-46 219 4 140 4 59 4 17-45 17-125s42-126 123-126zm0 227c63 0 89-41 89-101s-29-99-89-99c-61 0-89 39-89 99S79-25 140-24" id="S"/><g id="a"><use transform="matrix(0.06172839506172839,0,0,0.06172839506172839,0,0)" xlink:href="#P"/><use transform="matrix(0.06172839506172839,0,0,0.06172839506172839,6.172839506172839,0)" xlink:href="#Q"/><use transform="matrix(0.06172839506172839,0,0,0.06172839506172839,22.160493827160494,0)" xlink:href="#P"/><use transform="matrix(0.06172839506172839,0,0,0.06172839506172839,28.333333333333332,0)" xlink:href="#R"/><use transform="matrix(0.06172839506172839,0,0,0.06172839506172839,44.32098765432099,0)" xlink:href="#P"/><use transform="matrix(0.06172839506172839,0,0,0.06172839506172839,50.49382716049383,0)" xlink:href="#S"/></g><path fill="#333" d="M233-177c-1 41-23 64-60 70L243 0h-38l-65-103H63V0H30v-248c88 3 205-21 203 71zM63-129c60-2 137 13 137-47 0-61-80-42-137-45v92" id="T"/><path fill="#333" d="M30 0v-248h187v28H63v79h144v27H63v87h162V0H30" id="U"/><path fill="#333" d="M160-131c35 5 61 23 61 61C221 17 115-2 30 0v-248c76 3 177-17 177 60 0 33-19 50-47 57zm-97-11c50-1 110 9 110-42 0-47-63-36-110-37v79zm0 115c55-2 124 14 124-45 0-56-70-42-124-44v89" id="V"/><g id="b"><use transform="matrix(0.06172839506172839,0,0,0.06172839506172839,0,0)" xlink:href="#T"/><use transform="matrix(0.06172839506172839,0,0,0.06172839506172839,15.987654320987653,0)" xlink:href="#U"/><use transform="matrix(0.06172839506172839,0,0,0.06172839506172839,30.80246913580247,0)" xlink:href="#R"/><use transform="matrix(0.06172839506172839,0,0,0.06172839506172839,46.79012345679012,0)" xlink:href="#U"/><use transform="matrix(0.06172839506172839,0,0,0.06172839506172839,61.60493827160494,0)" xlink:href="#V"/><use transform="matrix(0.06172839506172839,0,0,0.06172839506172839,76.41975308641975,0)" xlink:href="#U"/><use transform="matrix(0.06172839506172839,0,0,0.06172839506172839,91.23456790123456,0)" xlink:href="#T"/></g><path fill="#333" d="M127-220V0H93v-220H8v-28h204v28h-85" id="W"/><path fill="#333" d="M205 0l-28-72H64L36 0H1l101-248h38L239 0h-34zm-38-99l-47-123c-12 45-31 82-46 123h93" id="X"/><g id="c"><use transform="matrix(0.06172839506172839,0,0,0.06172839506172839,0,0)" xlink:href="#Q"/><use transform="matrix(0.06172839506172839,0,0,0.06172839506172839,15.987654320987653,0)" xlink:href="#S"/><use transform="matrix(0.06172839506172839,0,0,0.06172839506172839,33.2716049382716,0)" xlink:href="#W"/><use transform="matrix(0.06172839506172839,0,0,0.06172839506172839,45.12345679012345,0)" xlink:href="#X"/></g><path fill="#333" d="M27 0v-27h64v-190l-56 39v-29l58-41h29v221h61V0H27" id="Y"/><use transform="matrix(0.06172839506172839,0,0,0.06172839506172839,0,0)" xlink:href="#Y" id="d"/><path fill="#333" d="M30 0v-248h33v221h125V0H30" id="Z"/><path fill="#333" d="M232-93c-1 65-40 97-104 97C67 4 28-28 28-90v-158h33c8 89-33 224 67 224 102 0 64-133 71-224h33v155" id="aa"/><g id="e"><use transform="matrix(0.06172839506172839,0,0,0.06172839506172839,0,0)" xlink:href="#R"/><use transform="matrix(0.06172839506172839,0,0,0.06172839506172839,15.987654320987653,0)" xlink:href="#X"/><use transform="matrix(0.06172839506172839,0,0,0.06172839506172839,30.80246913580247,0)" xlink:href="#Z"/><use transform="matrix(0.06172839506172839,0,0,0.06172839506172839,43.148148148148145,0)" xlink:href="#R"/><use transform="matrix(0.06172839506172839,0,0,0.06172839506172839,59.1358024691358,0)" xlink:href="#aa"/><use transform="matrix(0.06172839506172839,0,0,0.06172839506172839,75.12345679012346,0)" xlink:href="#Z"/><use transform="matrix(0.06172839506172839,0,0,0.06172839506172839,87.46913580246914,0)" xlink:href="#X"/><use transform="matrix(0.06172839506172839,0,0,0.06172839506172839,102.28395061728395,0)" xlink:href="#T"/></g><path fill="#333" d="M101-251c82-7 93 87 43 132L82-64C71-53 59-42 53-27h129V0H18c2-99 128-94 128-182 0-28-16-43-45-43s-46 15-49 41l-32-3c6-41 34-60 81-64" id="ab"/><use transform="matrix(0.06172839506172839,0,0,0.06172839506172839,0,0)" xlink:href="#ab" id="f"/><path fill="#333" d="M126-127c33 6 58 20 58 59 0 88-139 92-164 29-3-8-5-16-6-25l32-3c6 27 21 44 54 44 32 0 52-15 52-46 0-38-36-46-79-43v-28c39 1 72-4 72-42 0-27-17-43-46-43-28 0-47 15-49 41l-32-3c6-42 35-63 81-64 48-1 79 21 79 65 0 36-21 52-52 59" id="ac"/><use transform="matrix(0.06172839506172839,0,0,0.06172839506172839,0,0)" xlink:href="#ac" id="g"/><g id="h"><use transform="matrix(0.06172839506172839,0,0,0.06172839506172839,0,0)" xlink:href="#R"/><use transform="matrix(0.06172839506172839,0,0,0.06172839506172839,15.987654320987653,0)" xlink:href="#X"/><use transform="matrix(0.06172839506172839,0,0,0.06172839506172839,30.80246913580247,0)" xlink:href="#Z"/><use transform="matrix(0.06172839506172839,0,0,0.06172839506172839,43.148148148148145,0)" xlink:href="#R"/><use transform="matrix(0.06172839506172839,0,0,0.06172839506172839,59.1358024691358,0)" xlink:href="#aa"/><use transform="matrix(0.06172839506172839,0,0,0.06172839506172839,75.12345679012346,0)" xlink:href="#Z"/><use transform="matrix(0.06172839506172839,0,0,0.06172839506172839,87.46913580246914,0)" xlink:href="#X"/><use transform="matrix(0.06172839506172839,0,0,0.06172839506172839,102.28395061728395,0)" xlink:href="#T"/></g><path fill="#333" d="M185-189c-5-48-123-54-124 2 14 75 158 14 163 119 3 78-121 87-175 55-17-10-28-26-33-46l33-7c5 56 141 63 141-1 0-78-155-14-162-118-5-82 145-84 179-34 5 7 8 16 11 25" id="ad"/><path fill="#333" d="M240 0l2-218c-23 76-54 145-80 218h-23L58-218 59 0H30v-248h44l77 211c21-75 51-140 76-211h43V0h-30" id="ae"/><g id="i"><use transform="matrix(0.06172839506172839,0,0,0.06172839506172839,0,0)" xlink:href="#ad"/><use transform="matrix(0.06172839506172839,0,0,0.06172839506172839,14.814814814814813,0)" xlink:href="#S"/><use transform="matrix(0.06172839506172839,0,0,0.06172839506172839,32.09876543209876,0)" xlink:href="#ae"/><use transform="matrix(0.06172839506172839,0,0,0.06172839506172839,50.55555555555554,0)" xlink:href="#X"/><use transform="matrix(0.06172839506172839,0,0,0.06172839506172839,65.37037037037035,0)" xlink:href="#T"/></g><path fill="#333" d="M30-248c118-7 216 8 213 122C240-48 200 0 122 0H30v-248zM63-27c89 8 146-16 146-99s-60-101-146-95v194" id="af"/><g id="j"><use transform="matrix(0.06172839506172839,0,0,0.06172839506172839,0,0)" xlink:href="#W"/><use transform="matrix(0.06172839506172839,0,0,0.06172839506172839,13.08641975308642,0)" xlink:href="#S"/><use transform="matrix(0.06172839506172839,0,0,0.06172839506172839,30.370370370370367,0)" xlink:href="#af"/><use transform="matrix(0.06172839506172839,0,0,0.06172839506172839,46.35802469135802,0)" xlink:href="#X"/><use transform="matrix(0.06172839506172839,0,0,0.06172839506172839,61.172839506172835,0)" xlink:href="#ad"/></g><g id="k"><use transform="matrix(0.06172839506172839,0,0,0.06172839506172839,0,0)" xlink:href="#X"/><use transform="matrix(0.06172839506172839,0,0,0.06172839506172839,14.814814814814813,0)" xlink:href="#ad"/></g><g id="l"><use transform="matrix(0.06172839506172839,0,0,0.06172839506172839,0,0)" xlink:href="#Q"/><use transform="matrix(0.06172839506172839,0,0,0.06172839506172839,15.987654320987653,0)" xlink:href="#S"/><use transform="matrix(0.06172839506172839,0,0,0.06172839506172839,33.2716049382716,0)" xlink:href="#W"/><use transform="matrix(0.06172839506172839,0,0,0.06172839506172839,45.12345679012345,0)" xlink:href="#X"/><use transform="matrix(0.06172839506172839,0,0,0.06172839506172839,59.938271604938265,0)" xlink:href="#ad"/></g><use transform="matrix(0.06172839506172839,0,0,0.06172839506172839,0,0)" xlink:href="#U" id="m"/><path fill="#333" d="M137 0h-34L2-248h35l83 218 83-218h36" id="ag"/><g id="n"><use transform="matrix(0.06172839506172839,0,0,0.06172839506172839,0,0)" xlink:href="#af"/><use transform="matrix(0.06172839506172839,0,0,0.06172839506172839,15.987654320987653,0)" xlink:href="#P"/><use transform="matrix(0.06172839506172839,0,0,0.06172839506172839,22.160493827160494,0)" xlink:href="#ag"/><use transform="matrix(0.06172839506172839,0,0,0.06172839506172839,36.9753086419753,0)" xlink:href="#P"/><use transform="matrix(0.06172839506172839,0,0,0.06172839506172839,43.148148148148145,0)" xlink:href="#af"/><use transform="matrix(0.06172839506172839,0,0,0.06172839506172839,59.1358024691358,0)" xlink:href="#P"/><use transform="matrix(0.06172839506172839,0,0,0.06172839506172839,65.30864197530863,0)" xlink:href="#T"/></g><path fill="#333" d="M30-248c87 1 191-15 191 75 0 78-77 80-158 76V0H30v-248zm33 125c57 0 124 11 124-50 0-59-68-47-124-48v98" id="ah"/><g id="o"><use transform="matrix(0.06172839506172839,0,0,0.06172839506172839,0,0)" xlink:href="#ah"/><use transform="matrix(0.06172839506172839,0,0,0.06172839506172839,14.814814814814813,0)" xlink:href="#S"/><use transform="matrix(0.06172839506172839,0,0,0.06172839506172839,32.09876543209876,0)" xlink:href="#T"/></g><path fill="#333" d="M63-220v92h138v28H63V0H30v-248h175v28H63" id="ai"/><g id="p"><use transform="matrix(0.06172839506172839,0,0,0.06172839506172839,0,0)" xlink:href="#ai"/><use transform="matrix(0.06172839506172839,0,0,0.06172839506172839,13.518518518518517,0)" xlink:href="#S"/><use transform="matrix(0.06172839506172839,0,0,0.06172839506172839,30.80246913580247,0)" xlink:href="#P"/></g><g id="q"><use transform="matrix(0.06172839506172839,0,0,0.06172839506172839,0,0)" xlink:href="#ae"/><use transform="matrix(0.06172839506172839,0,0,0.06172839506172839,18.456790123456788,0)" xlink:href="#X"/><use transform="matrix(0.06172839506172839,0,0,0.06172839506172839,33.2716049382716,0)" xlink:href="#P"/><use transform="matrix(0.06172839506172839,0,0,0.06172839506172839,39.44444444444444,0)" xlink:href="#S"/><use transform="matrix(0.06172839506172839,0,0,0.06172839506172839,56.72839506172839,0)" xlink:href="#T"/></g><g id="r"><use transform="matrix(0.06172839506172839,0,0,0.06172839506172839,0,0)" xlink:href="#S"/><use transform="matrix(0.06172839506172839,0,0,0.06172839506172839,17.28395061728395,0)" xlink:href="#aa"/></g><path fill="#333" d="M143 4C61 4 22-44 18-125c-5-107 100-154 193-111 17 8 29 25 37 43l-32 9c-13-25-37-40-76-40-61 0-88 39-88 99 0 61 29 100 91 101 35 0 62-11 79-27v-45h-74v-28h105v86C228-13 192 4 143 4" id="aj"/><g id="s"><use transform="matrix(0.06172839506172839,0,0,0.06172839506172839,0,0)" xlink:href="#P"/><use transform="matrix(0.06172839506172839,0,0,0.06172839506172839,6.172839506172839,0)" xlink:href="#aj"/><use transform="matrix(0.06172839506172839,0,0,0.06172839506172839,23.456790123456788,0)" xlink:href="#aa"/><use transform="matrix(0.06172839506172839,0,0,0.06172839506172839,39.44444444444444,0)" xlink:href="#X"/><use transform="matrix(0.06172839506172839,0,0,0.06172839506172839,54.25925925925925,0)" xlink:href="#Z"/></g><use transform="matrix(0.06172839506172839,0,0,0.06172839506172839,0,0)" xlink:href="#X" id="t"/><path fill="#333" d="M134-131c28 9 52 24 51 62-1 50-34 73-85 73S17-19 16-69c0-36 21-54 49-61-75-25-45-126 34-121 46 3 78 18 79 63 0 33-17 51-44 57zm-34-11c31 1 46-15 46-44 0-28-17-43-47-42-29 0-46 13-45 42 1 28 16 44 46 44zm1 122c35 0 51-18 51-52 0-30-18-46-53-46-33 0-51 17-51 47 0 34 19 51 53 51" id="ak"/><use transform="matrix(0.06172839506172839,0,0,0.06172839506172839,0,0)" xlink:href="#ak" id="u"/><g id="v"><use transform="matrix(0.06172839506172839,0,0,0.06172839506172839,0,0)" xlink:href="#T"/><use transform="matrix(0.06172839506172839,0,0,0.06172839506172839,15.987654320987653,0)" xlink:href="#X"/></g><g id="w"><use transform="matrix(0.06172839506172839,0,0,0.06172839506172839,0,0)" xlink:href="#ai"/><use transform="matrix(0.06172839506172839,0,0,0.06172839506172839,13.518518518518517,0)" xlink:href="#P"/><use transform="matrix(0.06172839506172839,0,0,0.06172839506172839,19.691358024691358,0)" xlink:href="#ae"/></g><g id="x"><use transform="matrix(0.06172839506172839,0,0,0.06172839506172839,0,0)" xlink:href="#ag"/><use transform="matrix(0.06172839506172839,0,0,0.06172839506172839,14.814814814814813,0)" xlink:href="#S"/><use transform="matrix(0.06172839506172839,0,0,0.06172839506172839,32.09876543209876,0)" xlink:href="#R"/><use transform="matrix(0.06172839506172839,0,0,0.06172839506172839,48.08641975308641,0)" xlink:href="#U"/></g><g id="y"><use transform="matrix(0.06172839506172839,0,0,0.06172839506172839,0,0)" xlink:href="#ai"/><use transform="matrix(0.06172839506172839,0,0,0.06172839506172839,13.518518518518517,0)" xlink:href="#S"/><use transform="matrix(0.06172839506172839,0,0,0.06172839506172839,30.80246913580247,0)" xlink:href="#P"/></g><g id="z"><use transform="matrix(0.06172839506172839,0,0,0.06172839506172839,0,0)" xlink:href="#X"/><use transform="matrix(0.06172839506172839,0,0,0.06172839506172839,14.814814814814813,0)" xlink:href="#ah"/><use transform="matrix(0.06172839506172839,0,0,0.06172839506172839,29.629629629629626,0)" xlink:href="#T"/><use transform="matrix(0.06172839506172839,0,0,0.06172839506172839,45.61728395061728,0)" xlink:href="#S"/><use transform="matrix(0.06172839506172839,0,0,0.06172839506172839,62.90123456790123,0)" xlink:href="#ag"/><use transform="matrix(0.06172839506172839,0,0,0.06172839506172839,76.04938271604938,0)" xlink:href="#X"/><use transform="matrix(0.06172839506172839,0,0,0.06172839506172839,90.86419753086419,0)" xlink:href="#af"/><use transform="matrix(0.06172839506172839,0,0,0.06172839506172839,106.85185185185185,0)" xlink:href="#S"/></g><g id="A"><use transform="matrix(0.06172839506172839,0,0,0.06172839506172839,0,0)" xlink:href="#T"/><use transform="matrix(0.06172839506172839,0,0,0.06172839506172839,15.987654320987653,0)" xlink:href="#U"/><use transform="matrix(0.06172839506172839,0,0,0.06172839506172839,30.80246913580247,0)" xlink:href="#ah"/><use transform="matrix(0.06172839506172839,0,0,0.06172839506172839,45.61728395061728,0)" xlink:href="#T"/><use transform="matrix(0.06172839506172839,0,0,0.06172839506172839,61.60493827160493,0)" xlink:href="#S"/><use transform="matrix(0.06172839506172839,0,0,0.06172839506172839,78.88888888888889,0)" xlink:href="#ag"/><use transform="matrix(0.06172839506172839,0,0,0.06172839506172839,92.03703703703702,0)" xlink:href="#X"/><use transform="matrix(0.06172839506172839,0,0,0.06172839506172839,106.85185185185183,0)" xlink:href="#af"/><use transform="matrix(0.06172839506172839,0,0,0.06172839506172839,122.83950617283949,0)" xlink:href="#S"/></g><use transform="matrix(0.06172839506172839,0,0,0.06172839506172839,0,0)" xlink:href="#X" id="B"/><path fill="#333" d="M59-47c-2 24 18 29 38 22v24C64 9 27 4 27-40v-127H5v-23h24l9-43h21v43h35v23H59v120" id="al"/><path fill="#333" d="M100-194c63 0 86 42 84 106H49c0 40 14 67 53 68 26 1 43-12 49-29l28 8c-11 28-37 45-77 45C44 4 14-33 15-96c1-61 26-98 85-98zm52 81c6-60-76-77-97-28-3 7-6 17-6 28h103" id="am"/><path fill="#333" d="M210-169c-67 3-38 105-44 169h-31v-121c0-29-5-50-35-48C34-165 62-65 56 0H25l-1-190h30c1 10-1 24 2 32 10-44 99-50 107 0 11-21 27-35 58-36 85-2 47 119 55 194h-31v-121c0-29-5-49-35-48" id="an"/><g id="C"><use transform="matrix(0.06172839506172839,0,0,0.06172839506172839,0,0)" xlink:href="#al"/><use transform="matrix(0.06172839506172839,0,0,0.06172839506172839,6.172839506172839,0)" xlink:href="#am"/><use transform="matrix(0.06172839506172839,0,0,0.06172839506172839,18.51851851851852,0)" xlink:href="#an"/></g><path fill="#333" d="M141-36C126-15 110 5 73 4 37 3 15-17 15-53c-1-64 63-63 125-63 3-35-9-54-41-54-24 1-41 7-42 31l-33-3c5-37 33-52 76-52 45 0 72 20 72 64v82c-1 20 7 32 28 27v20c-31 9-61-2-59-35zM48-53c0 20 12 33 32 33 41-3 63-29 60-74-43 2-92-5-92 41" id="ao"/><path fill="#333" d="M24 0v-261h32V0H24" id="ap"/><path fill="#333" d="M84 4C-5 8 30-112 23-190h32v120c0 31 7 50 39 49 72-2 45-101 50-169h31l1 190h-30c-1-10 1-25-2-33-11 22-28 36-60 37" id="aq"/><path fill="#333" d="M117-194c89-4 53 116 60 194h-32v-121c0-31-8-49-39-48C34-167 62-67 57 0H25l-1-190h30c1 10-1 24 2 32 11-22 29-35 61-36" id="ar"/><path fill="#333" d="M100-194c62-1 85 37 85 99 1 63-27 99-86 99S16-35 15-95c0-66 28-99 85-99zM99-20c44 1 53-31 53-75 0-43-8-75-51-75s-53 32-53 75 10 74 51 75" id="as"/><path fill="#333" d="M103-251c84 0 111 97 45 133-19 10-37 24-39 52H78c0-63 77-55 77-114 0-30-21-42-52-43-32 0-53 17-56 46l-32-2c7-45 34-72 88-72zM77 0v-35h34V0H77" id="at"/><g id="D"><use transform="matrix(0.06172839506172839,0,0,0.06172839506172839,0,0)" xlink:href="#ao"/><use transform="matrix(0.06172839506172839,0,0,0.06172839506172839,12.345679012345679,0)" xlink:href="#ap"/><use transform="matrix(0.06172839506172839,0,0,0.06172839506172839,17.22222222222222,0)" xlink:href="#aq"/><use transform="matrix(0.06172839506172839,0,0,0.06172839506172839,29.5679012345679,0)" xlink:href="#ar"/><use transform="matrix(0.06172839506172839,0,0,0.06172839506172839,41.913580246913575,0)" xlink:href="#as"/><use transform="matrix(0.06172839506172839,0,0,0.06172839506172839,54.25925925925925,0)" xlink:href="#at"/></g><path fill="#333" d="M169-182c-1-43-94-46-97-3 18 66 151 10 154 114 3 95-165 93-204 36-6-8-10-19-12-30l50-8c3 46 112 56 116 5-17-69-150-10-154-114-4-87 153-88 188-35 5 8 8 18 10 28" id="au"/><path fill="#333" d="M25-224v-37h50v37H25zM25 0v-190h50V0H25" id="av"/><path fill="#333" d="M220-157c-53 9-28 100-34 157h-49v-107c1-27-5-49-29-50C55-147 81-57 75 0H25l-1-190h47c2 12-1 28 3 38 10-53 101-56 108 0 13-22 24-43 59-42 82 1 51 116 57 194h-49v-107c-1-25-5-48-29-50" id="aw"/><g id="E"><use transform="matrix(0.04938271604938272,0,0,0.04938271604938272,0,0)" xlink:href="#au"/><use transform="matrix(0.04938271604938272,0,0,0.04938271604938272,11.851851851851853,0)" xlink:href="#av"/><use transform="matrix(0.04938271604938272,0,0,0.04938271604938272,16.790123456790127,0)" xlink:href="#aw"/></g><path fill="#333" d="M175 0L67-191c6 58 2 128 3 191H24v-248h59L193-55c-6-58-2-129-3-193h46V0h-61" id="ax"/><path fill="#333" d="M101-320c28 0 65 44 74 0h23c0 29-10 51-39 51-28-1-66-45-74 0H61c2-28 9-52 40-51zM199 0l-22-63H83L61 0H9l90-248h61L250 0h-51zm-33-102l-36-108c-10 38-24 72-36 108h72" id="ay"/><path fill="#333" d="M140-251c80 0 125 45 125 126S219 4 139 4C58 4 15-44 15-125s44-126 125-126zm-1 214c52 0 73-35 73-88 0-50-21-86-72-86-52 0-73 35-73 86s22 88 72 88" id="az"/><g id="F"><use transform="matrix(0.04938271604938272,0,0,0.04938271604938272,0,0)" xlink:href="#ax"/><use transform="matrix(0.04938271604938272,0,0,0.04938271604938272,12.790123456790125,0)" xlink:href="#ay"/><use transform="matrix(0.04938271604938272,0,0,0.04938271604938272,25.58024691358025,0)" xlink:href="#az"/></g><path fill="#333" d="M24 0v-248h52V0H24" id="aA"/><path fill="#333" d="M230 0l2-204L168 0h-37L68-204 70 0H24v-248h70l56 185 57-185h69V0h-46" id="aB"/><g id="G"><use transform="matrix(0.04938271604938272,0,0,0.04938271604938272,0,0)" xlink:href="#au"/><use transform="matrix(0.04938271604938272,0,0,0.04938271604938272,11.851851851851853,0)" xlink:href="#aA"/><use transform="matrix(0.04938271604938272,0,0,0.04938271604938272,16.790123456790127,0)" xlink:href="#aB"/></g><path fill="#333" d="M140-251c81 0 123 46 123 126C263-53 228-8 163 1c7 30 30 48 69 40v23c-55 16-95-15-103-61C56-3 17-48 17-125c0-80 42-126 123-126zm0 227c63 0 89-41 89-101s-29-99-89-99c-61 0-89 39-89 99S79-25 140-24" id="aC"/><g id="H"><use transform="matrix(0.06172839506172839,0,0,0.06172839506172839,0,0)" xlink:href="#aC"/><use transform="matrix(0.06172839506172839,0,0,0.06172839506172839,17.28395061728395,0)" xlink:href="#aa"/><use transform="matrix(0.06172839506172839,0,0,0.06172839506172839,33.2716049382716,0)" xlink:href="#U"/></g><path fill="#333" d="M110-160c48 1 74 30 74 79 0 53-28 85-80 85-65 0-83-55-86-122-5-90 50-162 133-122 14 7 22 21 27 39l-31 6c-5-40-67-38-82-6-9 19-15 44-15 74 11-20 30-34 60-33zm-7 138c34 0 49-23 49-58s-16-56-50-56c-29 0-50 16-49 49 1 36 15 65 50 65" id="aD"/><use transform="matrix(0.06172839506172839,0,0,0.06172839506172839,0,0)" xlink:href="#aD" id="I"/><g id="J"><use transform="matrix(0.06172839506172839,0,0,0.06172839506172839,0,0)" xlink:href="#ae"/><use transform="matrix(0.06172839506172839,0,0,0.06172839506172839,18.456790123456788,0)" xlink:href="#U"/><use transform="matrix(0.06172839506172839,0,0,0.06172839506172839,33.2716049382716,0)" xlink:href="#Q"/><use transform="matrix(0.06172839506172839,0,0,0.06172839506172839,49.25925925925925,0)" xlink:href="#S"/><use transform="matrix(0.06172839506172839,0,0,0.06172839506172839,66.5432098765432,0)" xlink:href="#T"/></g><g id="K"><use transform="matrix(0.06172839506172839,0,0,0.06172839506172839,0,0)" xlink:href="#aC"/><use transform="matrix(0.06172839506172839,0,0,0.06172839506172839,17.28395061728395,0)" xlink:href="#aa"/><use transform="matrix(0.06172839506172839,0,0,0.06172839506172839,33.2716049382716,0)" xlink:href="#U"/></g><use transform="matrix(0.06172839506172839,0,0,0.06172839506172839,0,0)" xlink:href="#ak" id="L"/><g id="M"><use transform="matrix(0.06172839506172839,0,0,0.06172839506172839,0,0)" xlink:href="#U"/><use transform="matrix(0.06172839506172839,0,0,0.06172839506172839,14.814814814814813,0)" xlink:href="#ad"/><use transform="matrix(0.06172839506172839,0,0,0.06172839506172839,29.629629629629626,0)" xlink:href="#W"/><use transform="matrix(0.06172839506172839,0,0,0.06172839506172839,41.481481481481474,0)" xlink:href="#X"/></g><g id="N"><use transform="matrix(0.06172839506172839,0,0,0.06172839506172839,0,0)" xlink:href="#af"/><use transform="matrix(0.06172839506172839,0,0,0.06172839506172839,15.987654320987653,0)" xlink:href="#U"/></g><path fill="#333" d="M212-179c-10-28-35-45-73-45-59 0-87 40-87 99 0 60 29 101 89 101 43 0 62-24 78-52l27 14C228-24 195 4 139 4 59 4 22-46 18-125c-6-104 99-153 187-111 19 9 31 26 39 46zM142 18c19-1 33 8 33 26 0 31-30 33-64 32V58c18 2 39 4 41-13 1-15-18-13-34-13l12-32h19" id="aE"/><path fill="#333" d="M184-316c-4 23-8 48-36 47s-64-43-75 0H57c4-23 8-48 36-47s64 44 74 0h17zM205 0l-28-72H64L36 0H1l101-248h38L239 0h-34zm-38-99l-47-123c-12 45-31 82-46 123h93" id="aF"/><g id="O"><use transform="matrix(0.06172839506172839,0,0,0.06172839506172839,0,0)" xlink:href="#T"/><use transform="matrix(0.06172839506172839,0,0,0.06172839506172839,15.987654320987653,0)" xlink:href="#U"/><use transform="matrix(0.06172839506172839,0,0,0.06172839506172839,30.80246913580247,0)" xlink:href="#R"/><use transform="matrix(0.06172839506172839,0,0,0.06172839506172839,46.79012345679012,0)" xlink:href="#aa"/><use transform="matrix(0.06172839506172839,0,0,0.06172839506172839,62.77777777777777,0)" xlink:href="#ah"/><use transform="matrix(0.06172839506172839,0,0,0.06172839506172839,77.59259259259258,0)" xlink:href="#U"/><use transform="matrix(0.06172839506172839,0,0,0.06172839506172839,92.40740740740739,0)" xlink:href="#T"/><use transform="matrix(0.06172839506172839,0,0,0.06172839506172839,108.39506172839505,0)" xlink:href="#X"/><use transform="matrix(0.06172839506172839,0,0,0.06172839506172839,123.20987654320986,0)" xlink:href="#aE"/><use transform="matrix(0.06172839506172839,0,0,0.06172839506172839,139.19753086419752,0)" xlink:href="#aF"/><use transform="matrix(0.06172839506172839,0,0,0.06172839506172839,154.01234567901233,0)" xlink:href="#S"/></g></defs></g></svg>